<svg width="171" height="174" viewBox="0 0 171 174" fill="none" xmlns="http://www.w3.org/2000/svg">
<path d="M93.698 154.652C82.095 154.652 70.812 148.39 61.9271 137.019C52.4597 124.904 45.8792 107.475 42.8971 86.6192C42.802 85.9546 42.9527 85.2695 43.3013 84.7787C43.6503 84.2874 44.1546 84.0502 44.6564 84.1426C44.7102 84.1524 50.1304 85.1262 57.9256 85.1262C71.0242 85.1262 95.0324 82.2541 108.652 63.0194C111.166 59.4898 113.405 50.8296 115.776 41.6608C120.575 23.0996 126.548 0 139.623 0C145.199 0 151.338 4.16337 158.386 12.7264L170.17 21.169C170.687 21.5389 171.007 22.2613 171 23.044C170.994 23.8267 170.662 24.5399 170.14 24.8943L159.997 31.778C157.623 65.3671 151.235 93.2516 141.004 114.672C131.832 133.875 119.939 146.829 106.608 152.132C102.35 153.805 98.0079 154.652 93.698 154.652ZM46.4146 88.6324C52.5023 126.288 70.8885 150.449 93.6976 150.449C97.7071 150.449 101.75 149.66 105.714 148.103C118.304 143.094 129.591 130.752 138.35 112.412C148.425 91.3187 154.68 63.6723 156.942 30.2415C156.991 29.5214 157.313 28.8849 157.796 28.5571L166.027 22.9712L156.726 16.3074C156.611 16.2253 156.504 16.1239 156.407 16.0062C149.995 8.17404 144.347 4.20354 139.622 4.20354C128.789 4.20354 123.222 25.7335 118.75 43.0334C116.156 53.0633 113.917 61.7253 110.935 65.9125C97.2305 85.2667 74.5431 89.3301 57.9246 89.3301C52.8142 89.3292 48.7509 88.9323 46.4146 88.6324Z" fill="#C8EEC4"/>
<path d="M68.7119 143.424C67.8565 143.424 67.1554 142.509 67.139 141.362C67.1225 140.202 67.8132 139.243 68.6821 139.221C86.1882 138.776 98.9874 131.6 106.725 117.894C121.078 92.4662 113.381 52.6692 113.302 52.2704C113.079 51.1487 113.579 49.9975 114.418 49.6995C115.259 49.4011 116.12 50.0694 116.343 51.1907C116.429 51.6185 118.43 61.8188 118.593 75.4592C118.811 93.6468 115.576 109.195 109.238 120.424C100.889 135.214 87.2645 142.952 68.7426 143.423C68.7325 143.424 68.722 143.424 68.7119 143.424Z" fill="#C8EEC4"/>
<path d="M141.865 27.6715C139.278 27.6715 137.174 24.8592 137.174 21.4024C137.174 17.9456 139.278 15.1333 141.865 15.1333C144.455 15.1333 146.562 17.9456 146.562 21.4024C146.562 24.8592 144.455 27.6715 141.865 27.6715ZM141.865 19.3364C140.999 19.3364 140.321 20.2438 140.321 21.4024C140.321 22.5611 140.999 23.4685 141.865 23.4685C142.734 23.4685 143.415 22.5611 143.415 21.4024C143.415 20.2438 142.734 19.3364 141.865 19.3364Z" fill="#C8EEC4"/>
<path d="M123.145 56.1451C123.012 56.1451 122.877 56.1227 122.742 56.075C121.902 55.7785 121.401 54.6287 121.623 53.5065L124.919 36.8371C125.141 35.7144 126.002 35.0466 126.843 35.3418C127.683 35.6383 128.184 36.7881 127.962 37.9103L124.666 54.5797C124.479 55.5221 123.842 56.1451 123.145 56.1451Z" fill="#C8EEC4"/>
<path d="M126.96 63.0922C126.827 63.0922 126.692 63.0698 126.557 63.0226C125.717 62.7265 125.216 61.5772 125.437 60.4545L128.727 43.7847C128.949 42.6625 129.81 41.9942 130.65 42.2879C131.49 42.584 131.992 43.7333 131.771 44.856L128.48 61.5259C128.294 62.4683 127.657 63.0922 126.96 63.0922Z" fill="#C8EEC4"/>
<path d="M131.297 71.1951C131.165 71.1951 131.03 71.1727 130.895 71.1255C130.055 70.8294 129.554 69.6801 129.775 68.5574L133.065 51.8885C133.287 50.7663 134.147 50.0971 134.988 50.3918C135.828 50.6879 136.33 51.8372 136.108 52.9599L132.818 69.6288C132.632 70.5716 131.995 71.1951 131.297 71.1951Z" fill="#C8EEC4"/>
<path d="M135.626 79.299C135.492 79.299 135.357 79.2766 135.223 79.229C134.383 78.9324 133.881 77.7826 134.103 76.6604L137.4 59.9906C137.622 58.8684 138.482 58.1996 139.323 58.4952C140.163 58.7918 140.665 59.9415 140.443 61.0638L137.146 77.7336C136.96 78.676 136.322 79.299 135.626 79.299Z" fill="#C8EEC4"/>
<path d="M139.96 87.4025C139.827 87.4025 139.692 87.3796 139.557 87.3324C138.718 87.0368 138.216 85.887 138.437 84.7648L141.727 68.0959C141.949 66.9737 142.811 66.3049 143.65 66.5991C144.49 66.8952 144.992 68.0445 144.771 69.1672L141.48 85.8361C141.294 86.7785 140.657 87.4025 139.96 87.4025Z" fill="#C8EEC4"/>
<path d="M144.296 95.5055C144.163 95.5055 144.028 95.483 143.894 95.4359C143.053 95.1398 142.551 93.99 142.773 92.8678L146.064 76.1984C146.285 75.0762 147.146 74.4075 147.987 74.7017C148.827 74.9978 149.329 76.1475 149.107 77.2698L145.816 93.9396C145.63 94.882 144.993 95.5055 144.296 95.5055Z" fill="#C8EEC4"/>
<path d="M77.7628 117.648C62.3275 117.648 50.7686 102.059 50.249 101.346C49.6426 100.515 49.6559 99.1837 50.2784 98.3743C50.9005 97.565 51.8967 97.5823 52.5027 98.4126C52.6429 98.6041 65.3544 115.687 80.9809 113.19C91.7723 111.467 101.536 100.941 110.001 81.9067C110.445 80.9082 111.41 80.5804 112.157 81.173C112.905 81.7657 113.15 83.0551 112.707 84.0531C103.71 104.285 93.1525 115.494 81.3289 117.368C80.1207 117.559 78.93 117.648 77.7628 117.648Z" fill="#C8EEC4"/>
<path d="M121.857 169.653C117.67 169.653 114.299 168.001 111.82 164.728C107.16 158.575 107.515 149.015 107.532 148.611C107.582 147.452 108.325 146.554 109.193 146.633C110.06 146.7 110.722 147.691 110.674 148.847C110.67 148.957 110.403 156.969 114.047 161.758C116.156 164.531 119.24 165.75 123.208 165.386C124.073 165.304 124.827 166.18 124.886 167.339C124.946 168.496 124.292 169.5 123.425 169.58C122.89 169.628 122.367 169.653 121.857 169.653Z" fill="#C8EEC4"/>
<path d="M107.47 173.362C103.283 173.362 99.9124 171.709 97.4338 168.436C92.7735 162.284 93.1281 152.724 93.1452 152.319C93.1949 151.16 93.9387 150.262 94.8063 150.342C95.6731 150.408 96.3354 151.399 96.2872 152.556C96.283 152.664 96.0165 160.677 99.6603 165.466C101.77 168.239 104.852 169.458 108.822 169.095C109.688 169.011 110.44 169.889 110.5 171.047C110.56 172.205 109.905 173.208 109.038 173.288C108.504 173.337 107.98 173.362 107.47 173.362Z" fill="#C8EEC4"/>
<path d="M28.2026 129.892C20.8948 129.892 13.4105 129.686 7.39866 129.069C2.317 128.48 0.172714 127.836 0.00940976 125.366C-0.16963 122.664 2.20859 121.809 6.94616 120.105C7.39166 119.945 7.90081 119.763 8.4145 119.572C7.8508 119.104 7.43922 118.442 7.38886 117.47C7.27347 115.251 8.95966 114.464 11.0942 113.467C11.4795 113.287 11.9915 113.048 12.4506 112.808C12.1086 112.276 11.817 111.574 11.8194 110.711C11.824 109.094 12.7915 108.214 13.3794 107.685C13.257 107.549 13.0975 107.384 12.8908 107.191C12.3803 106.761 10.9791 105.54 11.2246 103.606C11.4837 101.565 13.1384 101.058 14.7386 100.568C14.9467 100.504 15.2044 100.425 15.4618 100.339C15.2981 100.193 15.1051 100.03 14.8781 99.8486C12.3359 97.9483 11.0536 95.6376 11.0672 92.9812C11.0914 88.1505 15.6167 84.7474 16.1325 84.3752C16.3622 84.2099 16.6192 84.1226 16.8804 84.1226H44.4414C45.3104 84.1226 46.015 85.0636 46.015 86.2241C46.015 87.3846 45.3104 88.3256 44.4414 88.3256H17.3022C16.1237 89.2867 14.2204 91.3201 14.2144 93.012C14.2095 94.3388 15.6016 95.574 16.4318 96.1924C16.4447 96.2022 16.4577 96.212 16.4702 96.2223C18.0487 97.4776 19.6279 99.0537 19.3716 101.233C19.1055 103.495 17.2375 104.113 15.5506 104.631C16.2646 105.472 16.8595 106.528 16.8528 107.851C16.8451 109.295 16.1517 110.194 15.5513 110.786C16.3737 111.705 16.4426 112.735 16.3982 113.315C16.2492 115.261 14.7533 116.18 12.8926 117.075C13.5444 117.47 14.1662 118.155 14.1945 119.389C14.2504 121.832 12.218 122.562 7.76408 124.163C7.32732 124.32 6.81328 124.505 6.2828 124.702C6.69299 124.761 7.14898 124.82 7.65498 124.878C25.3632 126.696 56.1972 124.891 56.5063 124.873C57.3774 124.806 58.1096 125.719 58.1485 126.878C58.1873 128.038 57.5148 129.02 56.6465 129.071C56.4406 129.085 42.6723 129.892 28.2026 129.892Z" fill="#C8EEC4"/>
</svg>
