<svg width="259" height="138" viewBox="0 0 259 138" fill="none" xmlns="http://www.w3.org/2000/svg">
<path d="M27.6472 106.345C27.2128 106.268 17.1633 104.182 17.1633 84.8236C17.138 84.0201 16.8808 83.2608 16.4456 82.7042C16.0104 82.1476 15.4307 81.8369 14.8278 81.8369C14.2249 81.8369 13.6452 82.1476 13.21 82.7042C12.7748 83.2608 12.5177 84.0201 12.4923 84.8236C12.4923 103.955 2.42208 106.235 2.00835 106.345C1.45129 106.449 0.941299 106.819 0.572264 107.385C0.203228 107.951 0 108.677 0 109.427C0 110.177 0.203228 110.902 0.572264 111.469C0.941299 112.035 1.45129 112.404 2.00835 112.509C2.42208 112.597 12.5006 114.876 12.5006 134.03C12.5259 134.834 12.7831 135.593 13.2183 136.149C13.6535 136.706 14.2331 137.017 14.8361 137.017C15.439 137.017 16.0186 136.706 16.4539 136.149C16.8891 135.593 17.1462 134.834 17.1716 134.03C17.1716 114.898 27.2418 112.619 27.6555 112.536C28.2157 112.436 28.7296 112.068 29.1017 111.501C29.4738 110.934 29.6789 110.205 29.6789 109.452C29.6789 108.698 29.4738 107.97 29.1017 107.402C28.7296 106.835 28.2157 106.467 27.6555 106.367L27.6472 106.345ZM14.8216 119.037C13.3888 115.094 11.1556 111.765 8.37567 109.43C11.1596 107.096 13.3971 103.767 14.834 99.8223C16.2681 103.768 18.5045 107.097 21.2882 109.43C18.5031 111.759 16.2652 115.087 14.8299 119.031L14.8216 119.037Z" fill="#C8EEC4"/>
<path d="M229.093 -0.0836611C229.057 -1.21527 228.695 -2.2847 228.083 -3.06855C227.471 -3.85241 226.656 -4.29004 225.807 -4.29004C224.959 -4.29004 224.144 -3.85241 223.532 -3.06855C222.92 -2.2847 222.558 -1.21527 222.522 -0.0836611C222.522 48.6067 196.539 54.2724 195.433 54.4822C194.652 54.6354 193.939 55.1586 193.423 55.9562C192.907 56.7538 192.623 57.7726 192.623 58.8266C192.623 59.8806 192.907 60.8995 193.423 61.6971C193.939 62.4947 194.652 63.0179 195.433 63.1711C195.707 63.2099 222.511 68.7512 222.511 117.721C222.546 118.853 222.908 119.922 223.52 120.706C224.132 121.49 224.948 121.928 225.796 121.928C226.644 121.928 227.459 121.49 228.071 120.706C228.684 119.922 229.045 118.853 229.081 117.721C229.081 69.0388 255.076 63.3809 256.176 63.1633C256.96 63.0161 257.677 62.4958 258.196 61.6982C258.715 60.9007 259.001 59.8795 259.001 58.8228C259.001 57.766 258.715 56.7449 258.196 55.9473C257.677 55.1497 256.96 54.6294 256.176 54.4822C255.908 54.4278 229.093 48.8943 229.093 -0.0836611ZM225.805 89.7817C221.149 72.3263 212.461 63.3576 205.716 58.8266C212.461 54.3034 221.155 45.327 225.805 27.856C230.46 45.327 239.16 54.2801 245.905 58.8266C239.16 63.3421 230.46 72.3263 225.805 89.7817Z" fill="#C8EEC4"/>
<path d="M102.117 136.6C101.924 136.6 101.733 136.549 101.555 136.451C101.377 136.352 101.215 136.208 101.078 136.025L84.2492 113.549C84.1089 113.368 83.997 113.152 83.92 112.912C83.8431 112.673 83.8025 112.416 83.8008 112.155C83.7991 111.895 83.8363 111.636 83.9102 111.395C83.984 111.154 84.0931 110.935 84.231 110.751C84.369 110.567 84.533 110.421 84.7135 110.322C84.8941 110.224 85.0875 110.174 85.2825 110.176C85.4776 110.179 85.6704 110.233 85.8496 110.336C86.0288 110.438 86.1909 110.588 86.3264 110.775L103.156 133.251C103.361 133.526 103.501 133.875 103.558 134.256C103.614 134.636 103.585 135.031 103.474 135.389C103.363 135.747 103.174 136.053 102.933 136.269C102.691 136.484 102.408 136.6 102.117 136.6Z" fill="#C8EEC4"/>
<path d="M85.288 136.6C84.9977 136.599 84.7139 136.484 84.4726 136.268C84.2312 136.053 84.0431 135.747 83.9321 135.388C83.821 135.03 83.7919 134.636 83.8485 134.256C83.905 133.875 84.0447 133.526 84.2499 133.251L101.079 110.775C101.354 110.407 101.728 110.2 102.117 110.2C102.507 110.2 102.881 110.407 103.156 110.775C103.432 111.142 103.587 111.641 103.587 112.162C103.587 112.682 103.432 113.181 103.157 113.549L86.3271 136.025C86.1906 136.208 86.0286 136.352 85.8503 136.451C85.672 136.549 85.481 136.6 85.288 136.6Z" fill="#C8EEC4"/>
<path d="M183.719 50.9862C183.717 46.5519 182.732 42.2177 180.886 38.5315C179.041 34.8453 176.418 31.9726 173.35 30.2768C170.283 28.5809 166.907 28.138 163.651 29.004C160.394 29.8701 157.403 32.0061 155.056 35.1422C152.709 38.2782 151.11 42.2734 150.463 46.6226C149.815 50.9717 150.148 55.4796 151.419 59.5761C152.69 63.6727 154.842 67.174 157.603 69.6374C160.364 72.1008 163.609 73.4156 166.93 73.4156C171.382 73.4094 175.65 71.0441 178.798 66.8389C181.946 62.6337 183.715 56.9322 183.719 50.9862ZM166.93 64.649C164.906 64.6506 162.927 63.8505 161.244 62.3502C159.561 60.8498 158.249 58.7165 157.474 56.2201C156.698 53.7237 156.495 50.9763 156.889 48.3255C157.283 45.6746 158.257 43.2394 159.688 41.3278C161.118 39.4163 162.941 38.1142 164.926 37.5864C166.91 37.0586 168.968 37.3287 170.837 38.3626C172.707 39.3965 174.305 41.1477 175.43 43.3947C176.554 45.6417 177.154 48.2836 177.154 50.9862C177.151 54.6072 176.073 58.0788 174.156 60.64C172.24 63.2011 169.641 64.6428 166.93 64.649Z" fill="#C8EEC4"/>
<path d="M114.643 1.36495C114.642 -1.86275 113.924 -5.01766 112.581 -7.70085C111.238 -10.384 109.329 -12.475 107.096 -13.7095C104.863 -14.9439 102.405 -15.2663 100.035 -14.6359C97.6649 -14.0055 95.4877 -12.4507 93.7791 -10.1679C92.0704 -7.88521 90.9069 -4.97711 90.4357 -1.81134C89.9645 1.35443 90.2067 4.6357 91.1318 7.61761C92.0569 10.5995 93.6233 13.1481 95.6329 14.9413C97.6425 16.7344 100.005 17.6914 102.422 17.6914C105.663 17.6869 108.77 15.9652 111.061 12.9042C113.352 9.8432 114.64 5.6931 114.643 1.36495ZM102.422 11.3102C100.949 11.3113 99.5087 10.729 98.2835 9.63685C97.0584 8.54474 96.1032 6.9919 95.5389 5.17475C94.9747 3.3576 94.8266 1.35776 95.1134 -0.571793C95.4003 -2.50135 96.1092 -4.27395 97.1505 -5.66538C98.1918 -7.05681 99.5187 -8.00456 100.963 -8.38876C102.408 -8.77295 103.905 -8.57634 105.266 -7.82377C106.627 -7.07121 107.791 -5.79651 108.609 -4.1609C109.428 -2.5253 109.864 -0.602265 109.864 1.36495C109.862 4.00069 109.078 6.5277 107.682 8.39198C106.287 10.2563 104.396 11.3057 102.422 11.3102Z" fill="#C8EEC4"/>
</svg>
